<?xml version="1.0" standalone="no"?>
<!DOCTYPE svg PUBLIC "-//W3C//DTD SVG 20010904//EN"
 "http://www.w3.org/TR/2001/REC-SVG-20010904/DTD/svg10.dtd">
<svg version="1.0" xmlns="http://www.w3.org/2000/svg"
 width="700.000000pt" height="700.000000pt" viewBox="0 0 700.000000 700.000000"
 preserveAspectRatio="xMidYMid meet">
<metadata>
Created by potrace 1.14, written by Peter Selinger 2001-2017
</metadata>
<g transform="translate(0.000000,700.000000) scale(0.100000,-0.100000)"
fill="#000000" stroke="none">
<path d="M2498 6945 c-48 -7 -95 -16 -105 -20 -10 -4 -31 -9 -48 -12 -45 -7
-280 -106 -295 -124 -3 -3 -16 -12 -29 -19 -14 -7 -30 -17 -35 -21 -6 -5 -51
-40 -101 -78 -136 -104 -252 -239 -348 -406 -99 -171 -175 -415 -184 -590 l-5
-101 -62 -1 c-126 -2 -192 -15 -331 -63 -115 -40 -148 -56 -234 -107 -275
-166 -499 -444 -612 -763 -17 -47 -33 -93 -35 -102 -2 -10 -7 -28 -10 -40 -7
-29 -23 -111 -31 -163 -3 -22 -8 -120 -10 -218 -8 -317 42 -559 174 -856 64
-143 91 -189 181 -308 17 -24 32 -46 32 -49 0 -12 148 -166 221 -229 52 -45
106 -85 185 -138 l70 -48 -1 -337 c0 -185 3 -364 7 -397 21 -159 27 -191 64
-320 80 -277 205 -503 417 -752 80 -93 326 -293 443 -358 27 -15 58 -34 69
-41 11 -8 27 -14 37 -14 10 0 18 -4 18 -10 0 -5 4 -10 9 -10 5 0 30 -10 57
-22 27 -12 54 -23 59 -24 6 -1 24 -8 40 -15 17 -7 32 -13 35 -14 3 0 48 -15
101 -33 52 -18 104 -34 115 -36 10 -3 42 -10 69 -16 28 -6 61 -13 75 -15 14
-2 57 -12 95 -21 63 -16 152 -18 855 -21 817 -4 896 -1 1075 38 50 11 100 22
112 25 12 2 35 9 50 15 16 6 30 10 33 10 8 -1 80 19 130 36 45 15 85 32 235
101 87 39 257 148 345 220 74 60 273 263 305 309 14 21 51 74 81 118 57 83
181 326 208 405 23 69 64 221 70 260 6 38 12 75 22 130 12 71 15 142 17 464
l3 329 99 69 c370 256 584 570 709 1041 43 161 58 317 53 532 -6 215 -6 217
-37 340 -53 210 -174 458 -306 625 -28 35 -165 170 -211 206 -77 62 -313 196
-313 177 0 -3 -6 0 -13 6 -38 31 -264 80 -379 82 -44 1 -68 5 -68 13 -2 52
-10 176 -14 196 -2 14 -8 43 -11 65 -17 99 -134 405 -164 425 -4 3 -20 28 -35
55 -57 106 -179 241 -337 370 -33 28 -163 107 -227 139 -200 100 -468 146
-677 115 -38 -5 -84 -12 -101 -14 -47 -7 -200 -63 -279 -103 -83 -41 -190
-120 -263 -193 l-52 -52 -73 69 c-39 39 -95 86 -123 107 -55 39 -238 135 -272
142 -11 2 -41 11 -67 20 -67 22 -91 25 -250 29 -83 3 -176 -1 -227 -9z"/>
</g>
</svg>
